<?xml version="1.0" encoding="utf-8"?>
<!-- Generator: Adobe Illustrator 23.0.1, SVG Export Plug-In . SVG Version: 6.00 Build 0)  -->
<svg version="1.1" id="Layer_1" xmlns="http://www.w3.org/2000/svg" xmlns:xlink="http://www.w3.org/1999/xlink" x="0px" y="0px"
	 viewBox="0 0 342.2 393.1" style="enable-background:new 0 0 342.2 393.1;" xml:space="preserve">
<style type="text/css">
	.st0{fill-rule:evenodd;clip-rule:evenodd;fill:#3EADEB;stroke:#FFFFFF;stroke-width:15;stroke-miterlimit:10;}
</style>
<title>Apple</title>
<path class="st0" d="M330.5,194.6c-8.6-53.9-42.5-84-95.3-88.3c-22.9-1.8-43.7,4.5-61.1,19.6C122,84.7,31.2,106,16.6,193.7
	C8.8,241,17.3,285.4,43,325.8c30.7,48.3,67.4,62.2,123.2,48.5c4.9-1.1,10-0.8,14.9,0.6c45.4,13.4,81.9,3,111.7-34
	C327.5,298.1,339.1,248.3,330.5,194.6z"/>
<path class="st0" d="M157.3,68.2c-17.3-11.8-32.6-24.1-53.5-24.1c18.8,13,40.1,22.8,54,42.9C109.3,101.5,51.4,59.9,52.9,13
	c16.1,0,32.2-1.1,48.1,0.2C129.5,15.6,149.7,35.6,157.3,68.2z"/>
<path class="st0" d="M164.5,97.6c4.3-23.2,7.7-43.7,12.1-64c1.7-7.9,9.4-12.9,17.2-11.3c1.7,0.4,3.3,1,4.7,1.9c3,1.9,5,9.3,3.8,13.2
	c-5.9,20.2-12.7,40.2-20,59.9c-1.4,3.8-6.7,6.3-10.1,9.3L164.5,97.6z"/>
</svg>
