<?xml version="1.0" encoding="utf-8"?>
<!-- Generator: Adobe Illustrator 23.0.1, SVG Export Plug-In . SVG Version: 6.00 Build 0)  -->
<svg version="1.1" id="Layer_1" xmlns="http://www.w3.org/2000/svg" xmlns:xlink="http://www.w3.org/1999/xlink" x="0px" y="0px"
	 viewBox="0 0 342.9 393.4" style="enable-background:new 0 0 342.9 393.4;" xml:space="preserve">
<style type="text/css">
	.st0{fill:#F6DE32;stroke:#FFFFFF;stroke-width:10;stroke-miterlimit:10;}
</style>
<title>Cili</title>
<path class="st0" d="M314.4,104.5c-1.2-1.1-2.5-2.1-3.8-3.1c0-0.1,0-0.1,0-0.2S308.2,94.7,299,86c0,0,2.5-31.9,18.1-53l17.4-14.1
	c0,0-8-20.2-25.9-4c-7.5,16.1-13.7,32.8-18.4,50c0,0-6.3,12.6-18.3,10.8c-2.9,0-5.7,0.2-8.5,0.8c-21.4-5.5-48.7-2.2-64.6,39.8
	c-2.8,8-5.1,16.1-7,24.3c0,0-1.8,44.9-81.5,111.6c0,0-14.1,11.5-28.2,18.6c0,0-56.5,30.7-68.9,66.7c-2.2,6.2-3.7,12.6-4.3,19.1
	c-0.9,8.4-0.3,17,1.9,25.2c0,0,3.7,6.5,10.2,0.4c0,0,11.4-18.9,22.4-24.4c0,0,13.6-5.7,34.2-7.1c0,0,87.2-10,153.7-62.4
	c0,0,86.2-68.1,98.8-131.9C330.2,156.4,342,128.8,314.4,104.5z M250.4,117.4c-4.7,25.4-15.4,50.2-33,69.4
	c-18.1,19.7-44.6,32.6-52.6,59.8c-1.7,5.8-10.7,3.3-9-2.5c6.7-22.8,24.1-36,41.4-50.9c23.9-20.5,38.5-47.5,44.2-78.3
	C242.5,109,251.5,111.5,250.4,117.4z"/>
</svg>
