<?xml version="1.0" encoding="utf-8"?>
<!-- Generator: Adobe Illustrator 23.0.1, SVG Export Plug-In . SVG Version: 6.00 Build 0)  -->
<svg version="1.1" id="Layer_1" xmlns="http://www.w3.org/2000/svg" xmlns:xlink="http://www.w3.org/1999/xlink" x="0px" y="0px"
	 viewBox="0 0 290.8 360.9" style="enable-background:new 0 0 290.8 360.9;" xml:space="preserve">
<style type="text/css">
	.st0{fill:#74DC53;stroke:#FFFFFF;stroke-width:8;stroke-miterlimit:10;}
</style>
<title>Vegetable</title>
<path class="st0" d="M89,144.9c-1.1,1.5-2.2,3.1-3.4,4.9C86.8,148,87.9,146.3,89,144.9z"/>
<path class="st0" d="M158.1,230.3c-0.9,1.1-1.8,2.2-2.7,3.4C156.3,232.6,157.2,231.4,158.1,230.3z"/>
<path class="st0" d="M107.8,286.1c16.9-17,33.5-35.1,47.1-51.9l-36.2-30.6l43.2,21.7c-1,1.4-2.1,2.7-3.2,4.1
	c15.3-19.2,26.3-36.1,29.2-46.5c9.7-35.2-7.9-52.3-23.7-60.7c-13.1-6.9-39.6-17.5-71.9,18.5c-0.4,0.5-0.9,1-1.4,1.6
	c0.5-0.6,1-1.1,1.4-1.6l42.5,37.1l-49.3-27.9c-7.8,11.9-18.1,31.3-28.5,53.5l29.6,25.8l-32.9-18.7C26.8,268.7,0.3,341.8,13.4,350.7
	c11.8,8,50.9-21.9,89.2-59.4l-22.9-19.4L107.8,286.1z"/>
<path class="st0" d="M89.3,144.4c0.4-0.6,0.8-1.1,1.2-1.6C90.1,143.3,89.7,143.9,89.3,144.4z"/>
<path class="st0" d="M155,234.2l0.4-0.5L155,234.2z"/>
<path class="st0" d="M158.8,229.4l-0.7,0.9L158.8,229.4z"/>
<path class="st0" d="M89,144.9l0.3-0.5L89,144.9z"/>
<path class="st0" d="M90.5,142.9c0.1-0.2,0.2-0.3,0.4-0.5C90.7,142.5,90.6,142.7,90.5,142.9z"/>
<path class="st0" d="M85.5,149.9L85.5,149.9C85.5,149.9,85.5,149.8,85.5,149.9C85.6,149.8,85.5,149.9,85.5,149.9z"/>
<path class="st0" d="M280.2,81.8l-5.2-3.1c1,0.1,2,0.2,3,0.3c4.1,0.5,7.1-2.1,6.7-5.9c-0.4-3.7-4-7.1-8.1-7.6
	c-9.7-1.1-19.5-0.6-29.1,1.4l2.1-5.1c1.3-3.2-0.7-7.4-4.6-9.4c-3.9-2-8.1-1-9.4,2.2l-7.5,18C216.8,77.3,205.8,83,195.6,90
	c6.6-16.1,10.8-35.3,6.5-54.7l9-12.2c2-2.8,0.8-7.1-2.8-9.6c-3.6-2.5-8.1-2.3-10.1,0.4l-2.7,3.6c-0.7-1.3-1.4-2.7-2.2-4
	c-2.1-3.5-6.7-5.4-10.2-4.2s-4.6,5.1-2.4,8.6c3.3,5.5,5.7,11.5,7,17.7c-3.1-2.3-7.1-2.6-9.5-0.5c-2.6,2.3-2.2,6.6,1,9.5l9.7,9.2
	c-0.9,9.9-3.3,19.6-7.3,28.8c-0.1-2.2-0.3-4.5-0.7-6.8c0-0.4-0.1-0.8-0.2-1.1c-1.4-8.8-4.2-17.3-8.3-25.3l3.1-22.9
	c0.5-3.5-2.4-7.4-6.5-8.7s-7.8,0.6-8.3,4.1l-1.1,8c-1.9-2.3-3.9-4.6-6-6.9c-2.9-3.2-7.6-4.1-10.5-2s-2.8,6.2,0.1,9.4
	c10.7,11.5,17,22.8,20.4,33.3l-9-3.8c-4-1.7-8-0.4-9,3c-0.9,2.8,0.7,6.2,3.7,8.2c0.5,0.4,1.1,0.7,1.7,0.9l15.8,6.7
	c2.4,27-12.4,46.2-13.4,47.4c-0.1,0.1-0.1,0.2-0.1,0.2c-0.1,0.1-0.2,0.3-0.3,0.4c-0.1,0.1-0.1,0.2-0.2,0.3c-0.1,0.1-0.1,0.2-0.1,0.4
	c-0.1,0.2-0.1,0.3-0.2,0.5c0,0.2-0.1,0.2-0.1,0.3c0,0.1,0,0.3,0,0.4c0,0.1,0,0.3,0,0.5s0,0.2,0,0.3s0,0.3,0,0.4c0,0.2,0,0.3,0.1,0.5
	c0,0.1,0,0.2,0.1,0.4c0,0.1,0.1,0.3,0.1,0.4c0,0.1,0.1,0.3,0.2,0.5c0,0.1,0.1,0.2,0.1,0.4c0.1,0.1,0.1,0.3,0.2,0.4s0.2,0.3,0.3,0.5
	c0.1,0.1,0.1,0.2,0.2,0.3c0.1,0.1,0.2,0.3,0.3,0.4c0.1,0.2,0.2,0.3,0.4,0.5l0.3,0.3c0.1,0.1,0.3,0.3,0.4,0.4
	c0.1,0.1,0.2,0.2,0.3,0.3c0.1,0.1,0.2,0.1,0.2,0.2s0.1,0.1,0.2,0.2c0.1,0,0.1,0.1,0.2,0.1l0.1,0.1l0.4,0.3l0,0
	c0.4,0.3,0.8,0.5,1.3,0.7c0,0,0,0,0,0s0.3,0.1,0.4,0.2c0.1,0.1,0.5,0.2,0.8,0.3h0.1c0.2,0,0.3,0.1,0.5,0.1c0.2,0,0.5,0.1,0.7,0.2
	h0.2c0.2,0,0.3,0,0.5,0c0.2,0,0.4,0,0.7,0h0.2c0.1,0,0.3,0,0.4,0c0.1,0,0.4,0,0.6-0.1h0.2l0.4-0.1c0.2-0.1,0.4-0.1,0.5-0.2l0.2-0.1
	l0.3-0.2l0.5-0.3l0.2-0.2c0.1-0.1,0.2-0.2,0.3-0.2c0.1-0.1,0.2-0.1,0.2-0.2c0.3-0.3,18-16.8,41.9-21.2l14.8,16.4
	c0.5,0.6,1.1,1.1,1.8,1.6c2.8,1.9,6.3,2.2,8.7,0.6c2.9-2,2.9-6.2,0.1-9.4l-9.1-10c7.7,0.7,15.2,2.9,22,6.5c3.9,2,8.1,1.1,9.5-2
	c1.4-3.1-0.6-7.4-4.4-9.4c-1.2-0.6-2.4-1.2-3.5-1.7l7.9-6.7c2.7-2.3,2.3-6.5-0.9-9.5c-3.1-3-7.8-3.6-10.5-1.4l-13.9,11.9
	c-7.5-1.5-15.2-1.8-22.8-1c9.8-6.6,20.3-12.1,31.3-16.3c0.1,0,0.1,0,0.2-0.1c4.8-1.7,9.7-3.1,14.6-4.2l20.6,12.4
	c3.7,2.3,8.1,1.7,9.8-1.3C285.6,88.4,284,84.1,280.2,81.8z"/>
</svg>
